<svg width="20" height="20" viewBox="0 0 20 20" fill="none" xmlns="http://www.w3.org/2000/svg">
<g clip-path="url(#clip0_9_2218)">
<path fill-rule="evenodd" clip-rule="evenodd" d="M5.8929 13.9025C5.6089 13.5435 5.2639 12.8095 4.6499 11.9185C4.3019 11.4145 3.4389 10.4655 3.1819 9.98353C2.9589 9.55753 2.9829 9.36653 3.0359 9.01353C3.1299 8.38553 3.7739 7.89653 4.4609 7.96253C4.9799 8.01153 5.4199 8.35453 5.8159 8.67853C6.0549 8.87353 6.3489 9.25253 6.5259 9.46653C6.6889 9.66253 6.7289 9.74353 6.9029 9.97553C7.1329 10.2825 7.2049 10.4345 7.1169 10.0965C7.0459 9.60053 6.9299 8.75353 6.7619 8.00453C6.6339 7.43653 6.6029 7.34753 6.4809 6.91153C6.3519 6.44753 6.2859 6.12253 6.1649 5.63053C6.0809 5.28253 5.9299 4.57153 5.8889 4.17153C5.8319 3.62453 5.8019 2.73253 6.1529 2.32253C6.4279 2.00153 7.0589 1.90453 7.4499 2.10253C7.9619 2.36153 8.2529 3.10553 8.3859 3.40253C8.6249 3.93653 8.7729 4.55353 8.9019 5.36353C9.0659 6.39453 9.3679 7.82553 9.3779 8.12653C9.4019 7.75753 9.3099 6.98053 9.3739 6.62653C9.4319 6.30553 9.7019 5.93253 10.0399 5.83153C10.3259 5.74653 10.6609 5.71553 10.9559 5.77653C11.2689 5.84053 11.5989 6.06453 11.7219 6.27553C12.0839 6.89953 12.0909 8.17453 12.1059 8.10653C12.1919 7.73053 12.1769 6.87753 12.3899 6.52253C12.5299 6.28853 12.8869 6.07753 13.0769 6.04353C13.3709 5.99153 13.7319 5.97553 14.0409 6.03553C14.2899 6.08453 14.6269 6.38053 14.7179 6.52253C14.9359 6.86653 15.0599 7.83953 15.0969 8.18053C15.1119 8.32153 15.1709 7.78853 15.3899 7.44453C15.7959 6.80553 17.2329 6.68153 17.2879 8.08353C17.3129 8.73753 17.3079 8.70753 17.3079 9.14753C17.3079 9.66453 17.2959 9.97553 17.2679 10.3495C17.2369 10.7495 17.1509 11.6535 17.0259 12.0915C16.9399 12.3925 16.6549 13.0695 16.3739 13.4755C16.3739 13.4755 15.2999 14.7255 15.1829 15.2885C15.0649 15.8505 15.1039 15.8545 15.0809 16.2535C15.0579 16.6515 15.2019 17.1755 15.2019 17.1755C15.2019 17.1755 14.3999 17.2795 13.9679 17.2105C13.5769 17.1475 13.0929 16.3695 12.9679 16.1315C12.7959 15.8035 12.4289 15.8665 12.2859 16.1085C12.0609 16.4915 11.5769 17.1785 11.2349 17.2215C10.5669 17.3055 9.1809 17.2525 8.0959 17.2415C8.0959 17.2415 8.2809 16.2305 7.8689 15.8835C7.5639 15.6245 7.0389 15.0995 6.7249 14.8235L5.8929 13.9025Z" fill="white"/>
<path fill-rule="evenodd" clip-rule="evenodd" d="M5.8929 13.9025C5.6089 13.5435 5.2639 12.8095 4.6499 11.9185C4.3019 11.4145 3.4389 10.4655 3.1819 9.98353C2.9589 9.55753 2.9829 9.36653 3.0359 9.01353C3.1299 8.38553 3.7739 7.89653 4.4609 7.96253C4.9799 8.01153 5.4199 8.35453 5.8159 8.67853C6.0549 8.87353 6.3489 9.25253 6.5259 9.46653C6.6889 9.66253 6.7289 9.74353 6.9029 9.97553C7.1329 10.2825 7.2049 10.4345 7.1169 10.0965C7.0459 9.60053 6.9299 8.75353 6.7619 8.00453C6.6339 7.43653 6.6029 7.34753 6.4809 6.91153C6.3519 6.44753 6.2859 6.12253 6.1649 5.63053C6.0809 5.28253 5.9299 4.57153 5.8889 4.17153C5.8319 3.62453 5.8019 2.73253 6.1529 2.32253C6.4279 2.00153 7.0589 1.90453 7.4499 2.10253C7.9619 2.36153 8.2529 3.10553 8.3859 3.40253C8.6249 3.93653 8.7729 4.55353 8.9019 5.36353C9.0659 6.39453 9.3679 7.82553 9.3779 8.12653C9.4019 7.75753 9.3099 6.98053 9.3739 6.62653C9.4319 6.30553 9.7019 5.93253 10.0399 5.83153C10.3259 5.74653 10.6609 5.71553 10.9559 5.77653C11.2689 5.84053 11.5989 6.06453 11.7219 6.27553C12.0839 6.89953 12.0909 8.17453 12.1059 8.10653C12.1919 7.73053 12.1769 6.87753 12.3899 6.52253C12.5299 6.28853 12.8869 6.07753 13.0769 6.04353C13.3709 5.99153 13.7319 5.97553 14.0409 6.03553C14.2899 6.08453 14.6269 6.38053 14.7179 6.52253C14.9359 6.86653 15.0599 7.83953 15.0969 8.18053C15.1119 8.32153 15.1709 7.78853 15.3899 7.44453C15.7959 6.80553 17.2329 6.68153 17.2879 8.08353C17.3129 8.73753 17.3079 8.70753 17.3079 9.14753C17.3079 9.66453 17.2959 9.97553 17.2679 10.3495C17.2369 10.7495 17.1509 11.6535 17.0259 12.0915C16.9399 12.3925 16.6549 13.0695 16.3739 13.4755C16.3739 13.4755 15.2999 14.7255 15.1829 15.2885C15.0649 15.8505 15.1039 15.8545 15.0809 16.2535C15.0579 16.6515 15.2019 17.1755 15.2019 17.1755C15.2019 17.1755 14.3999 17.2795 13.9679 17.2105C13.5769 17.1475 13.0929 16.3695 12.9679 16.1315C12.7959 15.8035 12.4289 15.8665 12.2859 16.1085C12.0609 16.4915 11.5769 17.1785 11.2349 17.2215C10.5669 17.3055 9.1809 17.2525 8.0959 17.2415C8.0959 17.2415 8.2809 16.2305 7.8689 15.8835C7.5639 15.6245 7.0389 15.0995 6.7249 14.8235L5.8929 13.9025Z" stroke="#302F2D" stroke-width="0.75" stroke-linecap="round" stroke-linejoin="round"/>
<path d="M14.1279 14.257V10.798" stroke="#302F2D" stroke-width="0.75" stroke-linecap="round"/>
<path d="M12.1122 14.2687L12.0962 10.7957" stroke="#302F2D" stroke-width="0.75" stroke-linecap="round"/>
<path d="M10.1162 10.8273L10.1372 14.2533" stroke="#302F2D" stroke-width="0.75" stroke-linecap="round"/>
</g>
<defs>
<clipPath id="clip0_9_2218">
<rect width="20" height="20" fill="white"/>
</clipPath>
</defs>
</svg>
